<svg width="20" height="20" viewBox="0 0 12 12" fill="#9c9c9c" xmlns="http://www.w3.org/2000/svg">
    <path d="M5.98765 6.36485L4.21765 4.59485C4.12396 4.50173 3.99724 4.44946 3.86515 4.44946C3.73305 4.44946 3.60633 4.50173 3.51265 4.59485C3.46578 4.64134 3.42858 4.69664 3.4032 4.75757C3.37782 4.8185 3.36475 4.88385 3.36475 4.94985C3.36475 5.01586 3.37782 5.08121 3.4032 5.14214C3.42858 5.20307 3.46578 5.25837 3.51265 5.30485L5.63265 7.42485C5.67913 7.47172 5.73443 7.50892 5.79536 7.5343C5.85629 7.55968 5.92164 7.57275 5.98765 7.57275C6.05365 7.57275 6.119 7.55968 6.17993 7.5343C6.24086 7.50892 6.29616 7.47172 6.34265 7.42485L8.48765 5.30485C8.53399 5.25813 8.57065 5.20273 8.59553 5.14181C8.62041 5.08089 8.63303 5.01566 8.63265 4.94985C8.63303 4.88405 8.62041 4.81882 8.59553 4.7579C8.57065 4.69698 8.53399 4.64157 8.48765 4.59485C8.39396 4.50173 8.26724 4.44946 8.13515 4.44946C8.00305 4.44946 7.87633 4.50173 7.78265 4.59485L5.98765 6.36485Z" fill="#9c9c9c"/>
</svg>
